# xmcd
#
# Track frame offsets:
#	150
#	8936
#	20819
#	33219
#	45592
#	54329
#	64699
#	71080
#	77265
#	90354
#	98989
#	108603
#	116549
#	128081
#	140373
#	149759
#	157890
#	165994
#	176733
#	187257
#
# Disc length: 2599 seconds
#
# Revision: 0
# Processed by: cddbd v1.4PL0 Copyright (c) Steve Scherf et al.
# Submitted via: EasyCDDAExtractor 4.6.9.1
#
DISCID=0c0a2514
DTITLE=Gene Autry - Classic Country
DYEAR=1900
DGENRE=Country
TTITLE0=You Are My Sunshine
TTITLE1=Dixie Cannonball
TTITLE2=You Belong To My Heart
TTITLE3=My Old Kentucky Home
TTITLE4=In A Little Spanish Town
TTITLE5=Down In The Valley
TTITLE6=My Adobe Hacienda
TTITLE7=Cowboy Blues
TTITLE8=Under Fiesta Stars
TTITLE9=A Boy From Texas, A Girl From Tennesse
TTITLE10=The West A Nest and You
TTITLE11=Don't Bite The Hand
TTITLE12=Vaya Con Dios
TTITLE13=Missouri Waltz
TTITLE14=There's No Back Door From Heaven
TTITLE15=The Gay Ranchero
TTITLE16=Kentucky Baby
TTITLE17=You're The Only Good Thing
TTITLE18=Trouble In Mind
TTITLE19=Rancho Pillow
EXTD=
EXTT0=
EXTT1=
EXTT2=
EXTT3=
EXTT4=
EXTT5=
EXTT6=
EXTT7=
EXTT8=
EXTT9=
EXTT10=
EXTT11=
EXTT12=
EXTT13=
EXTT14=
EXTT15=
EXTT16=
EXTT17=
EXTT18=
EXTT19=
PLAYORDER=
